<svg width="160" height="160" viewBox="0 0 160 160" fill="none" xmlns="http://www.w3.org/2000/svg">
<path d="M20.8803 150.106C27.2536 146.72 34.6403 147.653 41.4936 148.666C48.6136 149.733 55.7603 150.586 62.9603 151.12C70.4269 151.68 78.0536 152.133 85.5469 151.706C92.8003 151.306 99.7336 148.986 106.88 147.84C115.254 146.506 123.76 146.4 132.16 147.493C132.294 147.52 132.294 147.306 132.16 147.28C124.694 146.32 117.094 146.266 109.627 147.226C102.134 148.186 94.907 150.693 87.3869 151.36C79.8403 152.026 72.0803 151.52 64.5336 151.013C56.827 150.48 49.2003 149.573 41.5736 148.453C34.6669 147.44 27.227 146.506 20.827 149.92C20.667 150 20.7736 150.16 20.8803 150.106Z" fill="#080E29"/>
<path d="M119.839 150.986C132.266 147.786 144.932 154.56 157.332 151.146C157.466 151.12 157.412 150.906 157.279 150.96C144.879 154.373 132.212 147.6 119.786 150.8C119.652 150.826 119.706 151.013 119.839 150.986Z" fill="#080E29"/>
<path d="M12.8258 153.6C26.5858 150.4 40.1858 158.24 53.9725 155.36C54.1058 155.333 54.0525 155.147 53.9192 155.173C40.1325 158.08 26.5592 150.24 12.7725 153.413C12.6658 153.413 12.7192 153.627 12.8258 153.6Z" fill="#080E29"/>
<path d="M122.239 155.52C121.866 154.133 121.599 152.613 121.492 151.013C120.772 140.747 126.852 132.747 129.599 129.547C129.812 131.28 129.892 133.173 129.786 135.2C129.306 144.533 125.119 151.6 122.239 155.52Z" fill="#FDEBAB"/>
<path d="M122.239 155.52C120.639 154 118.666 151.734 117.119 148.614C113.599 141.627 114.399 134.907 114.879 132.214C116.266 134.347 117.706 136.96 118.933 140.054C121.359 146.107 122.079 151.574 122.239 155.52Z" fill="#FDEBAB"/>
<path d="M49.0927 131.52C48.7993 133.653 48.6927 136.453 49.306 139.627C50.826 147.493 55.7593 152.427 57.866 154.32C58.026 152.24 57.9727 149.68 57.4393 146.853C55.9193 139.093 51.4393 133.893 49.0927 131.52Z" fill="#FDEBAB"/>
<path d="M57.866 154.32C56.3194 153.813 56.906 146.32 58.9594 140.293C60.346 136.187 62.3194 133.093 63.786 131.093C64.6394 134.32 65.8927 140.933 62.906 147.76C61.626 150.64 59.0927 154.72 57.866 154.32Z" fill="#FDEBAB"/>
<path d="M43.4391 136.853C43.9457 136.853 43.9457 136.053 43.4391 136.053C42.9057 136.053 42.9057 136.853 43.4391 136.853Z" fill="#EEEEF0"/>
<path d="M51.0924 136.8C52.5591 142.587 54.6124 148.213 57.2258 153.573C57.2791 153.68 57.4658 153.6 57.3858 153.467C54.7724 148.107 52.7191 142.507 51.2791 136.747C51.2524 136.64 51.0658 136.693 51.0924 136.8Z" fill="#725A03"/>
<path d="M58.079 153.467C59.7056 149.013 61.359 144.56 63.0656 140.133C63.119 140 62.9056 139.973 62.879 140.08C61.1723 144.507 59.4923 148.96 57.8923 153.413C57.839 153.547 58.0256 153.6 58.079 153.467Z" fill="#725A03"/>
<path d="M115.867 138.027C117.12 143.573 119.04 148.907 121.547 154C121.6 154.107 121.787 154.027 121.707 153.893C119.2 148.827 117.307 143.467 116.053 137.947C116.053 137.867 115.84 137.92 115.867 138.027Z" fill="#725A03"/>
<path d="M125.732 140.187C125.066 145.227 123.892 150.16 122.266 154.96C122.212 155.093 122.426 155.147 122.452 155.013C124.079 150.213 125.226 145.28 125.919 140.24C125.919 140.133 125.732 140.08 125.732 140.187Z" fill="#725A03"/>
<path d="M104.933 29.7335C104.56 29.5468 102.267 28.4001 102.373 27.0668C102.48 25.6001 105.547 24.7468 106.827 24.4001C108.24 24.0001 110.053 23.8401 110.24 23.8401C110.587 23.8135 110.72 23.8135 110.8 23.8135C111.307 23.8401 112.667 23.8935 113.813 24.8535C114.56 25.4935 114.907 26.2668 115.12 26.7468C115.52 27.6268 115.627 28.4268 115.653 28.9335C114 29.2801 112.053 29.6001 109.893 29.7335C108.053 29.8668 106.4 29.8401 104.933 29.7335Z" fill="#080E29"/>
<path d="M117.733 27.0402C116.32 29.5469 113.333 30.9602 110.56 30.4802C107.52 29.9735 105.146 27.3602 104.986 24.9069C104.96 24.5069 104.88 23.1469 105.706 22.4268C106.693 21.5468 107.946 22.5335 109.573 21.7868C111.173 21.0668 110.853 19.7068 112.24 19.0402C113.92 18.2402 116.72 19.0935 118 21.1202C119.653 23.6802 117.973 26.6402 117.733 27.0402Z" fill="#080E29"/>
<path d="M104.827 29.5469C104.827 29.8669 104.88 30.2936 104.96 30.8002C105.067 31.3069 105.2 32.1069 105.653 32.8536C106.507 34.3202 108.053 34.8536 108.453 34.9869C109.627 35.3602 110.613 35.1736 111.067 35.0936C112.587 34.8269 113.573 34.0269 113.867 33.7602C114.08 33.5736 114.747 32.9869 115.227 32.0002C115.467 31.5202 115.787 30.8802 115.787 30.0002C115.787 29.5736 115.707 29.2002 115.627 28.9602C115.413 29.0402 115.04 29.1202 114.613 29.0136C114.213 28.9336 113.947 28.7202 113.787 28.5869C112.613 27.6536 112.48 26.7469 111.493 26.1869C111.333 26.0802 110.507 25.6269 109.493 25.7869C108.56 25.9202 107.947 26.5069 107.733 26.7202C107.44 26.9869 107.147 27.4669 106.533 28.4269C106.213 28.9069 105.973 29.3069 105.493 29.4669C105.253 29.5736 105.013 29.5736 104.827 29.5469Z" fill="white"/>
<path d="M115.707 30.0002C115.333 32.9602 112.827 35.2002 109.787 35.0935C107.253 34.9869 105.44 33.2269 105.067 30.7735C105.04 30.6402 104.853 30.6935 104.88 30.8269C105.28 33.5469 107.44 35.3869 110.213 35.3069C113.227 35.2002 115.52 32.9602 115.893 30.0269C115.92 29.8669 115.707 29.8669 115.707 30.0002Z" fill="#080E29"/>
<path d="M104.933 29.5468C105.28 26.6402 107.333 24.2402 110.347 23.9468C113.387 23.6802 115.333 26.0802 115.547 28.9602C115.547 29.0935 115.76 29.0935 115.76 28.9602C115.547 25.9735 113.52 23.4935 110.373 23.7602C107.253 24.0268 105.12 26.5335 104.773 29.5468C104.72 29.6802 104.933 29.6802 104.933 29.5468Z" fill="#080E29"/>
<path d="M115.68 29.0403C115.68 29.0403 115.707 29.0403 115.68 29.0403C115.813 28.9869 115.707 28.8003 115.6 28.8536C115.6 28.8536 115.6 28.8536 115.573 28.8536C115.467 28.9336 115.573 29.0936 115.68 29.0403Z" fill="#080E29"/>
<path d="M104.827 29.627C105.52 29.8403 105.947 29.307 106.347 28.8003C107.333 27.5737 108.027 25.8937 109.867 25.8403C112.427 25.7603 113.093 29.8137 115.707 29.0403C115.84 29.0137 115.787 28.8003 115.653 28.8537C113.813 29.387 113.067 27.307 111.947 26.3737C111.307 25.8403 110.507 25.6003 109.68 25.6803C108.933 25.7603 108.293 26.0803 107.76 26.6137C107.093 27.2803 105.973 29.787 104.907 29.467C104.747 29.4137 104.693 29.6003 104.827 29.627Z" fill="#080E29"/>
<path d="M109.68 27.7602C109.547 28.5335 108.96 31.2002 110.133 31.4935C110.267 31.5202 110.32 31.3335 110.187 31.3068C109.253 31.0668 109.787 28.4268 109.867 27.8135C109.893 27.7068 109.707 27.6268 109.68 27.7602Z" fill="#080E29"/>
<path d="M110.213 32.4001C111.093 32.5868 112.053 31.7601 112.213 30.9068C112.24 30.7735 112.053 30.7201 112.026 30.8535C111.893 31.5735 111.04 32.3468 110.266 32.1868C110.133 32.1868 110.08 32.3735 110.213 32.4001Z" fill="#080E29"/>
<path d="M107.893 29.4403C108.04 29.4403 108.16 29.2731 108.16 29.0669C108.16 28.8608 108.04 28.6936 107.893 28.6936C107.746 28.6936 107.626 28.8608 107.626 29.0669C107.626 29.2731 107.746 29.4403 107.893 29.4403Z" fill="#080E29"/>
<path d="M111.867 29.3068C112.014 29.3068 112.133 29.1397 112.133 28.9335C112.133 28.7273 112.014 28.5602 111.867 28.5602C111.719 28.5602 111.6 28.7273 111.6 28.9335C111.6 29.1397 111.719 29.3068 111.867 29.3068Z" fill="#080E29"/>
<path d="M107.627 28.1335C107.707 28.0002 107.813 27.8935 107.947 27.8135C108.16 27.6802 108.293 27.7335 108.507 27.8669C108.613 27.9469 108.72 27.7602 108.613 27.7069C108.427 27.5735 108.213 27.4935 107.973 27.6002C107.76 27.7069 107.573 27.8669 107.44 28.0535C107.387 28.1335 107.547 28.2402 107.627 28.1335Z" fill="#080E29"/>
<path d="M111.414 27.7335C111.601 27.5735 111.841 27.4402 112.081 27.5468C112.267 27.6268 112.347 27.8402 112.454 28.0268C112.507 28.1335 112.694 28.0535 112.614 27.9202C112.481 27.6802 112.347 27.3868 112.054 27.3335C111.761 27.2535 111.494 27.4135 111.281 27.6002C111.174 27.6802 111.334 27.8402 111.414 27.7335Z" fill="#080E29"/>
<path d="M109.094 23.9468C109.28 23.7068 109.947 23.0135 111.04 22.8535C112.827 22.5868 114.054 24.0802 114.107 24.1602C113.654 23.9202 112.694 23.4668 111.44 23.4402C110.374 23.4402 109.547 23.7335 109.094 23.9468Z" fill="white"/>
<path d="M61.8926 27.5734C62.5859 26.9068 63.2526 26.5068 63.7326 26.2934C64.3192 26.0001 64.8792 25.7334 65.6526 25.7868C66.1859 25.8134 66.6392 25.9734 66.9059 26.1068C67.2526 28.2934 67.6792 30.5601 68.1326 32.8534C69.0126 37.1734 69.9992 41.2534 71.0659 45.0934C71.9459 44.6401 73.1726 44.0001 74.6659 43.2534C79.0126 41.0668 82.9059 39.2268 86.1592 37.7334C87.7592 36.9868 89.8392 36.0801 92.2926 35.0134C93.7592 37.0134 94.0792 38.6934 94.1592 39.7334C94.6659 46.9068 85.0392 53.6268 77.8392 54.8001C75.5726 55.1734 73.0126 55.0668 72.7992 55.0668C68.5059 54.9068 65.5192 53.7334 64.8259 53.4668C63.7592 53.0401 62.9326 52.6134 62.3192 52.2668C61.9726 51.0401 61.5726 49.3334 61.2792 47.2801C61.0126 45.2801 60.9592 43.8134 60.9059 41.9468C60.7992 38.1868 61.0126 35.1201 61.1726 33.2801C61.3059 31.7334 61.5192 29.7868 61.8926 27.5734Z" fill="#3754ED"/>
<path d="M59.9201 14.6135C59.7601 14.3468 59.4934 14.0001 59.2801 14.0268C59.1467 14.0535 59.0401 14.2668 58.9601 14.6668C58.7734 15.6535 58.9067 16.4801 58.9067 16.5868C59.1467 17.9735 59.4134 18.7201 59.4134 18.7201C59.9201 20.0801 60.9067 22.5868 62.2667 25.8135C62.2667 26.2935 62.2667 26.7735 62.2667 27.2535C62.8534 26.7201 63.3867 26.4001 63.7867 26.1868C64.2667 25.9201 64.6667 25.7335 65.2001 25.7068C65.6801 25.6801 66.0801 25.8135 66.3201 25.8935C66.0001 25.3868 66.0001 24.9868 66.0267 24.7468C66.0534 24.5335 66.1334 24.4268 66.6134 23.4935C66.9867 22.8001 67.0401 22.6935 67.0934 22.5601C67.3334 22.0001 67.4667 21.7335 67.4667 21.3868C67.4667 20.8801 67.2534 20.2135 66.9067 20.1868C66.8534 20.1868 66.6401 20.1868 66.3734 20.6135C65.9734 18.7735 65.8934 17.2535 65.8934 16.1868C65.8934 15.3868 65.9467 14.2401 65.4401 12.8801C65.0134 11.7068 64.5334 11.4135 64.2667 11.3068C63.8934 11.1468 63.4934 11.2001 62.6934 11.3068C61.9467 11.4135 61.6001 11.4668 61.3334 11.7335C61.2801 11.8135 61.2267 11.8935 61.1201 12.9068C61.0134 14.0801 61.0134 14.6668 61.0134 15.0401C61.0134 15.0401 61.0134 15.2268 61.0134 15.3868C61.0401 15.9201 61.1467 16.8801 61.4934 18.2935C61.1734 17.1735 60.5601 15.6268 59.9201 14.6135Z" fill="white"/>
<path d="M66.4259 20.8535C66.5326 20.6935 66.6393 20.5602 66.7993 20.4535C66.9593 20.3468 67.3859 20.1602 67.3859 20.5068C67.3859 20.6402 67.5993 20.6402 67.5993 20.5068C67.5993 20.2135 67.3326 20.0535 67.0659 20.1068C66.7193 20.1602 66.4526 20.4802 66.2659 20.7468C66.1859 20.8535 66.3459 20.9602 66.4259 20.8535Z" fill="#080E29"/>
<path d="M67.493 21.1735C67.333 22.0002 67.0397 22.7735 66.5863 23.4668C66.2663 23.9735 65.9463 24.4268 65.973 25.0668C65.973 25.2002 66.1863 25.2002 66.1863 25.0668C66.133 24.2402 66.7997 23.6002 67.1197 22.9068C67.3863 22.3735 67.5463 21.7868 67.6797 21.2002C67.7063 21.1202 67.5197 21.0668 67.493 21.1735Z" fill="#080E29"/>
<path d="M62.2127 25.4401C61.386 23.5201 60.5594 21.5734 59.8394 19.6001C59.546 18.7734 59.2794 17.9201 59.1194 17.0401C59.0127 16.5068 58.8794 15.9201 58.9594 15.3868C59.0394 14.8268 59.2794 13.5468 59.8394 14.6668C59.8927 14.7734 60.0794 14.6934 59.9994 14.5601C59.8394 14.2668 59.706 14.0801 59.4394 13.8401C59.386 13.7868 59.3327 13.8134 59.2794 13.8668C58.266 15.3601 58.906 17.3868 59.4127 18.9601C60.1327 21.2001 61.0927 23.3601 62.026 25.5201C62.0794 25.6534 62.266 25.5468 62.2127 25.4401Z" fill="#080E29"/>
<path d="M60.24 15.5468C60.6133 16.4268 61.0133 17.2802 61.3867 18.1602C61.44 18.2668 61.6 18.1868 61.5467 18.0535C61.1733 17.1735 60.7733 16.3202 60.4 15.4402C60.3467 15.3335 60.1866 15.4402 60.24 15.5468Z" fill="#080E29"/>
<path d="M61.6004 17.2535C61.4137 15.5468 60.9604 13.2002 61.6537 11.5735C61.707 11.4668 61.5204 11.4135 61.467 11.5202C60.7737 13.1735 61.227 15.5202 61.4137 17.2535C61.4137 17.3602 61.6004 17.3868 61.6004 17.2535Z" fill="#080E29"/>
<path d="M61.839 11.7334C62.319 13.4934 62.6657 15.2801 62.959 17.0668C62.9857 17.2001 63.1724 17.1468 63.1457 17.0134C62.879 15.2001 62.5057 13.4401 62.0257 11.6801C61.999 11.5734 61.8124 11.6268 61.839 11.7334Z" fill="#080E29"/>
<path d="M63.0399 11.5468C64.0266 12.9068 64.2132 15.1468 64.5066 16.7735C64.5332 16.9068 64.7199 16.8535 64.6933 16.7202C64.3999 15.0402 64.2399 12.8535 63.1999 11.4402C63.1466 11.3335 62.9599 11.4402 63.0399 11.5468Z" fill="#080E29"/>
<path d="M65.4396 12.9335C65.6529 14.0268 65.813 15.1202 65.8663 16.2135C65.8663 16.3468 66.0796 16.3468 66.0796 16.2135C65.9996 15.0935 65.8663 13.9735 65.6263 12.8802C65.5996 12.7735 65.4129 12.8268 65.4396 12.9335Z" fill="#080E29"/>
<path d="M92.2663 34.9335C85.0663 38.0268 77.9729 41.4135 71.0129 45.0135C70.9063 45.0668 71.0129 45.2535 71.1196 45.1735C78.0796 41.5468 85.1729 38.1868 92.3729 35.0935C92.4796 35.0668 92.3729 34.8801 92.2663 34.9335Z" fill="#080E29"/>
<path d="M71.0661 45.0134C69.4128 38.7734 68.0528 32.4534 66.9861 26.0534C66.9595 25.9201 66.7728 25.9734 66.7995 26.1068C67.8661 32.4801 69.2261 38.8001 70.8795 45.0668C70.9061 45.2001 71.0928 45.1468 71.0661 45.0134Z" fill="#080E29"/>
<path d="M62.3996 27.3601C63.5462 26.4534 64.8529 25.5201 66.3729 26.0268C66.5062 26.0801 66.5596 25.8668 66.4262 25.8401C64.8262 25.3068 63.4662 26.2668 62.2662 27.2001C62.1329 27.2801 62.2929 27.4401 62.3996 27.3601Z" fill="#080E29"/>
<path d="M61.7593 28.0267C60.6127 34.9067 60.506 41.92 61.386 48.8267C61.4127 48.96 61.5993 48.96 61.5993 48.8267C60.7193 41.92 60.826 34.9334 61.9727 28.08C61.9727 27.9467 61.786 27.8934 61.7593 28.0267Z" fill="#080E29"/>
<path d="M62.7468 52.6133C70.4268 56.56 79.2535 55.4133 87.0401 52.4266C87.1468 52.3733 87.1202 52.1866 86.9868 52.24C79.2535 55.2266 70.4802 56.3733 62.8535 52.4533C62.7468 52.3733 62.6402 52.56 62.7468 52.6133Z" fill="#080E29"/>
<path d="M75.1206 50.5071C78.1073 47.8671 84.3739 42.3204 87.3606 39.6804C87.9739 39.1471 91.8673 35.7071 92.4539 35.1738C94.6406 34.8004 97.6806 34.3471 101.334 33.9204C106.587 33.3071 110.294 32.9071 114.907 33.0404C117.894 33.1204 122.027 33.4671 126.961 34.5604C127.014 36.1338 126.987 38.2938 126.561 40.8538C126.321 42.4004 125.387 47.4938 122.001 53.2538C121.041 54.8804 119.467 57.5204 117.041 59.8138C108.881 67.5471 96.7206 66.1071 96.1339 66.0271C82.2139 64.1871 75.6806 51.6271 75.1206 50.5071Z" fill="#3754ED"/>
<path d="M75.1999 50.5867C79.6532 46.6401 84.1066 42.6934 88.5599 38.7467C88.6666 38.6667 88.5066 38.5334 88.4266 38.6134C83.9732 42.5601 79.5199 46.5067 75.0666 50.4534C74.9599 50.5067 75.0932 50.6667 75.1999 50.5867Z" fill="#080E29"/>
<path d="M92.4794 35.2801C102.079 33.8401 111.759 32.4534 121.466 33.5467C121.599 33.5734 121.599 33.3601 121.466 33.3334C111.759 32.2134 102.026 33.6267 92.4261 35.0667C92.2928 35.1201 92.3461 35.3067 92.4794 35.2801Z" fill="#080E29"/>
<path d="M126.693 39.28C125.68 46.96 122.267 54.1333 116.96 59.76C116.88 59.8667 117.013 60 117.093 59.8933C122.453 54.2133 125.867 46.9867 126.907 39.2533C126.907 39.1467 126.72 39.1467 126.693 39.28Z" fill="#080E29"/>
<path d="M95.1467 39.0401C101.44 38.2934 107.787 38.0801 114.133 38.4001C114.64 38.4267 114.64 37.6267 114.133 37.6001C107.787 37.2801 101.44 37.4934 95.1467 38.2401C94.64 38.2934 94.6133 39.0934 95.1467 39.0401Z" fill="#EEF3F7"/>
<path d="M91.4139 43.0934C98.7739 42.4801 106.134 42.4267 113.494 42.9867C114.001 43.0134 114.001 42.2134 113.494 42.1867C106.134 41.6534 98.7473 41.68 91.4139 42.2934C90.9073 42.3201 90.9073 43.1201 91.4139 43.0934Z" fill="#EEF3F7"/>
<path d="M67.7859 40.8274C69.8926 41.2274 72.8792 41.8674 76.3459 42.8807C82.2926 44.5874 86.6392 46.4807 91.0926 48.4007C94.1859 49.7341 98.1592 51.5741 102.719 53.9741C102.399 55.2541 101.893 56.6674 101.119 58.0807C97.4659 64.6407 90.2659 66.6407 88.1326 67.1741C86.7726 66.4274 84.6392 65.2807 81.9992 63.9474C74.6659 60.2407 72.1859 59.6274 68.8526 57.0941C67.0926 55.7341 64.6659 53.5474 62.3726 50.0007C64.1859 46.9341 65.9726 43.8941 67.7859 40.8274Z" fill="white"/>
<path d="M69.2252 40.8802C80.0785 43.8402 90.6118 47.8935 100.612 53.0135C100.719 53.0669 100.825 52.9069 100.719 52.8535C90.6918 47.7335 80.1585 43.6535 69.2785 40.6935C69.1452 40.6669 69.0919 40.8535 69.2252 40.8802Z" fill="#080E29"/>
<path d="M66.2922 55.9469C73.1189 59.3069 79.8656 62.8535 86.5056 66.5602C86.6122 66.6135 86.7189 66.4535 86.6122 66.4002C79.9722 62.6935 73.2256 59.1469 66.3989 55.7869C66.2922 55.7069 66.1856 55.8935 66.2922 55.9469Z" fill="#080E29"/>
<path d="M114.32 153.733L66.6401 154.373C66.6401 145.013 85.1735 156.267 85.1735 145.12C85.1735 136.987 83.9468 125.413 83.4135 123.947C88.1068 123.947 92.0001 123.947 96.6935 123.947C96.1868 124.96 95.5735 135.493 95.5735 145.227C95.5735 155.573 114.32 144.747 114.32 153.733Z" fill="#C2C018"/>
<path d="M52.8 74.56L41.44 79.1733C40.4534 79.5733 39.8667 80.8 40.08 82.0533L43.6 104.32C43.7867 105.493 44.6134 106.347 45.6 106.373L57.2 106.48C58.4267 106.48 59.3601 105.2 59.2534 103.707C59.1467 102.373 58.2134 101.387 57.12 101.44L48.6934 101.893C47.68 101.947 46.7734 101.067 46.5867 99.84L44.3734 85.3333C44.16 84.0267 44.8267 82.7467 45.8934 82.4L54.1067 79.84C55.3067 79.4667 55.9734 77.8667 55.4934 76.4533L55.36 76.0267C54.9334 74.8 53.8134 74.16 52.8 74.56Z" fill="#C2C018"/>
<path d="M124.267 74.56L139.093 79.1733C140.373 79.5733 141.147 80.8 140.88 82.0533L136.293 104.32C136.053 105.493 134.96 106.347 133.707 106.373L118.587 106.48C117.013 106.48 115.76 105.2 115.92 103.707C116.053 102.373 117.28 101.387 118.693 101.44L129.68 101.893C131.013 101.947 132.16 101.067 132.427 99.84L135.307 85.3333C135.573 84.0267 134.693 82.7467 133.333 82.4L122.64 79.84C121.067 79.4667 120.213 77.8667 120.827 76.4533L121.013 76.0267C121.493 74.8 122.933 74.16 124.267 74.56Z" fill="#C2C018"/>
<path d="M111.147 129.173H65.4137C61.4937 129.173 58.2137 126.24 57.7603 122.373L50.827 63.4666C50.2937 58.8799 53.867 54.8533 58.4803 54.8533H120.427C125.174 54.8533 128.774 59.0933 128.054 63.7599L118.747 122.667C118.16 126.4 114.934 129.173 111.147 129.173Z" fill="#FFDB10"/>
<path d="M79.7599 87.3335C80.9866 87.6802 82.2133 88.0268 83.4399 88.3735C83.9466 88.5068 84.1599 87.7335 83.6533 87.6002C82.4266 87.2535 81.1999 86.9069 79.9733 86.5602C79.4666 86.4269 79.2533 87.2002 79.7599 87.3335Z" fill="#725A03"/>
<path d="M84.2396 88C85.4663 86.3467 86.6929 84.72 87.9196 83.0667C88.2396 82.6667 87.5463 82.2667 87.2263 82.6667C85.9996 84.32 84.7729 85.9467 83.5463 87.6C83.2263 88 83.9196 88.4 84.2396 88Z" fill="#725A03"/>
<path d="M87.2263 83.1467C87.2797 89.6801 87.3063 96.2134 87.3597 102.747C87.3597 103.253 88.1597 103.253 88.1597 102.747C88.1063 96.2134 88.0797 89.6801 88.0263 83.1467C88.0263 82.6401 87.2263 82.6401 87.2263 83.1467Z" fill="#725A03"/>
<path d="M80.1332 86.8268C82.3999 83.0935 84.6932 79.3868 86.9599 75.6535C87.2265 75.2002 86.5332 74.8002 86.2665 75.2535C83.9999 78.9868 81.7065 82.6935 79.4399 86.4268C79.1732 86.8535 79.8665 87.2802 80.1332 86.8268Z" fill="#725A03"/>
<path d="M87.306 75.4669C88.986 75.4669 90.666 75.4669 92.346 75.4669C92.8527 75.4669 92.8527 74.6669 92.346 74.6669C90.666 74.6669 88.986 74.6669 87.306 74.6669C86.7994 74.6669 86.7994 75.4669 87.306 75.4669Z" fill="#725A03"/>
<path d="M92.2666 75.8135C92.2666 84.6935 92.2666 93.5735 92.2666 102.453C92.2666 102.96 93.0666 102.96 93.0666 102.453C93.0666 93.5735 93.0666 84.6935 93.0666 75.8135C93.0666 75.3068 92.2666 75.3068 92.2666 75.8135Z" fill="#725A03"/>
<path d="M87.5734 102.533C85.92 102.533 84.2933 102.533 82.64 102.533C82.1333 102.533 82.1333 103.333 82.64 103.333C84.2933 103.333 85.92 103.333 87.5734 103.333C88.08 103.333 88.08 102.533 87.5734 102.533Z" fill="#725A03"/>
<path d="M81.7595 104.48C81.7595 105.387 81.7595 106.293 81.7595 107.173C81.7595 107.68 82.5595 107.68 82.5595 107.173C82.5595 106.267 82.5595 105.36 82.5595 104.48C82.5595 103.947 81.7595 103.947 81.7595 104.48Z" fill="#725A03"/>
<path d="M82.8802 108.4C87.2802 108.4 91.6536 108.4 96.0536 108.4C96.5602 108.4 96.5602 107.6 96.0536 107.6C91.6536 107.6 87.2802 107.6 82.8802 107.6C82.3469 107.6 82.3469 108.4 82.8802 108.4Z" fill="#725A03"/>
<path d="M93.4401 103.333C94.8801 103.333 96.3467 103.333 97.7867 103.333C98.2934 103.333 98.2934 102.533 97.7867 102.533C96.3467 102.533 94.8801 102.533 93.4401 102.533C92.9334 102.533 92.9334 103.333 93.4401 103.333Z" fill="#725A03"/>
<path d="M97.52 104.24C97.52 105.467 97.52 106.667 97.52 107.893C97.52 108.4 98.32 108.4 98.32 107.893C98.32 106.667 98.32 105.467 98.32 104.24C98.32 103.733 97.52 103.733 97.52 104.24Z" fill="#725A03"/>
<path d="M69.2538 82.4798C71.6005 81.6798 72.7205 79.2798 73.6805 77.1731C74.9071 74.4531 75.7338 71.5998 76.1871 68.6398C75.9471 68.6665 75.7071 68.6931 75.4671 68.7465C76.3205 70.6931 78.5871 71.1998 80.5071 71.2798C83.0405 71.3598 85.4938 70.5865 87.5738 69.1465C88.0005 68.8531 87.6005 68.1598 87.1738 68.4531C85.4405 69.6531 83.4671 70.3998 81.3605 70.4798C79.4938 70.5598 77.0138 70.2931 76.1605 68.3731C76.0271 68.0798 75.4671 68.1331 75.4405 68.4798C75.0671 70.9065 74.4538 73.3065 73.5471 75.5998C72.6671 77.7598 71.4938 80.9332 69.0938 81.7598C68.5605 81.8665 68.7471 82.6398 69.2538 82.4798Z" fill="#725A03"/>
<path d="M96.7202 118.213C99.8935 115.173 104.267 113.76 108.613 114.4C108.907 114.453 109.173 114.24 109.093 113.92C108.08 109.28 109.707 104.4 113.28 101.253C113.68 100.907 113.093 100.347 112.72 100.693C108.933 104.027 107.253 109.227 108.32 114.133C108.48 113.973 108.64 113.813 108.8 113.653C104.16 112.96 99.5201 114.427 96.1335 117.68C95.7601 118 96.3468 118.587 96.7202 118.213Z" fill="#725A03"/>
<path d="M97.5202 68.24C99.2536 71.76 104.587 71.9734 107.92 71.44C107.76 71.28 107.6 71.12 107.44 70.96C105.76 75.5201 108.107 80.4267 112.667 82.0267C113.147 82.1867 113.36 81.4134 112.88 81.2534C108.694 79.7867 106.667 75.3067 108.187 71.1734C108.294 70.8534 107.974 70.64 107.707 70.6934C104.72 71.1734 99.7602 71.0134 98.2135 67.84C97.9735 67.3867 97.2802 67.7867 97.5202 68.24Z" fill="#725A03"/>
<path d="M68.2665 105.12C70.2666 105.307 71.1732 108.16 71.3332 109.84C71.4932 111.52 71.0666 113.147 70.1866 114.56C69.9999 114.88 70.3999 115.36 70.7465 115.12C74.3199 112.4 77.9199 116.293 79.9999 118.933C80.3199 119.333 80.8799 118.773 80.5599 118.373C78.2666 115.467 74.2132 111.493 70.3465 114.453C70.5332 114.64 70.7199 114.827 70.9065 115.013C72.0799 113.093 72.4799 110.8 71.9465 108.613C71.5199 106.773 70.3732 104.56 68.2932 104.373C67.7332 104.267 67.7599 105.067 68.2665 105.12Z" fill="#725A03"/>
<path d="M73.1467 101.76C74.1334 103.867 75.0134 106.027 75.8401 108.213C76.0267 108.693 76.8001 108.48 76.6134 108C75.7867 105.76 74.8534 103.547 73.8401 101.36C73.6267 100.88 72.9334 101.28 73.1467 101.76Z" fill="#725A03"/>
<path d="M76.293 100.24C76.8796 102.533 77.653 104.773 78.613 106.933C78.8263 107.413 79.5196 106.987 79.3063 106.533C78.373 104.427 77.6263 102.267 77.0663 100.027C76.933 99.5201 76.1596 99.7334 76.293 100.24Z" fill="#725A03"/>
<path d="M72.6399 105.093C75.1199 104.133 77.5466 103.013 79.8666 101.733C80.3199 101.493 79.9199 100.8 79.4666 101.04C77.1999 102.293 74.8532 103.387 72.4266 104.32C71.9466 104.507 72.1599 105.28 72.6399 105.093Z" fill="#725A03"/>
<path d="M74.1876 107.734C76.0809 106.72 78.0275 105.734 79.9742 104.827C80.4275 104.614 80.0275 103.92 79.5742 104.134C77.6275 105.067 75.7076 106.027 73.7876 107.04C73.3342 107.28 73.7342 107.974 74.1876 107.734Z" fill="#725A03"/>
<path d="M28.7737 69.7332C27.9736 69.5465 26.827 69.3332 25.4403 69.1199C20.667 68.4532 14.1336 68.4265 13.8936 69.7065C13.7336 70.4799 15.947 71.4399 18.987 72.9065C22.7203 74.6932 27.9736 77.3865 34.267 81.0932C35.2003 78.6132 36.107 76.1332 37.0403 73.6532C36.8803 73.0932 36.3736 71.4665 34.8003 70.3199C32.1603 68.4265 29.0136 69.6265 28.7737 69.7332Z" fill="#080E29"/>
<path d="M14.8537 70.1598C18.667 70.0531 22.2137 71.6265 25.547 73.3598C28.587 74.9331 31.4137 76.8265 33.8404 79.2265C33.9204 79.3065 34.0804 79.1731 33.9737 79.0931C31.4137 76.5865 28.427 74.6131 25.227 72.9865C21.9737 71.3331 18.5337 69.8665 14.827 69.9731C14.747 69.9731 14.747 70.1598 14.8537 70.1598Z" fill="#EEEEF0"/>
<path d="M24.2402 69.0932C24.8802 69.4932 25.3069 70.0799 25.5202 70.7999C25.5469 70.9332 25.7602 70.8799 25.7069 70.7465C25.4936 69.9732 25.0136 69.3332 24.3469 68.9065C24.2402 68.8532 24.1336 69.0132 24.2402 69.0932Z" fill="#EEEEF0"/>
<path d="M25.6012 69.2798C26.2412 69.6264 26.6945 70.2131 26.8278 70.9331C26.8545 71.0664 27.0411 71.0131 27.0145 70.8798C26.8545 70.1064 26.3745 69.4664 25.6812 69.0931C25.5745 69.0398 25.4945 69.2264 25.6012 69.2798Z" fill="#EEEEF0"/>
<path d="M27.0685 69.5997C27.4951 69.9464 27.7618 70.4264 27.8418 70.9864C27.8685 71.1197 28.0551 71.0664 28.0285 70.9331C27.9485 70.3464 27.6551 69.8131 27.2018 69.4397C27.1218 69.3864 26.9618 69.5197 27.0685 69.5997Z" fill="#EEEEF0"/>
<path d="M28.4004 69.6532C29.2271 69.5999 30.3204 69.6266 31.5737 69.9199C34.2404 70.5866 35.9471 72.1866 36.6937 72.9866C37.7337 72.3732 38.7737 71.7599 39.8137 71.0932C45.5737 67.4932 49.4671 64.3732 51.4137 62.8532C54.5337 60.4266 59.1737 57.0666 65.5737 53.2266C66.0804 52.6132 67.8671 50.3999 67.4671 47.7332C66.9604 44.2399 63.0137 41.1999 57.8937 41.3866C57.3337 41.1732 56.3737 40.9066 55.2004 40.9866C54.9337 41.0132 53.7604 41.1199 52.1071 42.0532C50.9071 42.7466 50.2671 43.4399 48.7471 45.0132C45.2537 48.6399 45.6271 48.2399 45.3071 48.5599C43.2804 50.8266 41.9737 52.4532 40.4804 54.3199C35.2537 60.7732 34.5604 61.2266 31.5737 65.2266C30.1604 67.0932 29.0671 68.6666 28.4004 69.6532Z" fill="white"/>
<path d="M28.6398 69.2266C32.9865 63.8132 37.3065 58.3732 41.6798 52.9599C43.7332 50.3999 45.8665 47.8932 48.2132 45.5732C49.3865 44.3999 50.6132 43.2532 51.9198 42.2399C53.7598 40.8266 55.6532 40.9332 57.8398 41.4399C57.9732 41.4666 58.0265 41.2799 57.8932 41.2532C56.5065 40.9332 55.0132 40.6132 53.5998 41.0666C52.3732 41.4666 51.3598 42.4266 50.3998 43.2799C47.6265 45.7066 45.1465 48.4266 42.7998 51.2532C37.9465 57.1199 33.2265 63.1466 28.4532 69.0932C28.4265 69.1999 28.5598 69.3332 28.6398 69.2266Z" fill="#080E29"/>
<path d="M37.2268 73.12C46.3468 66.4533 55.6001 59.9733 65.0134 53.68C65.1201 53.6 65.0134 53.44 64.9068 53.52C55.5201 59.8133 46.2401 66.2933 37.1201 72.96C37.0134 73.0133 37.1201 73.2 37.2268 73.12Z" fill="#080E29"/>
<path d="M28.4005 69.7599C29.9205 69.7065 31.3872 69.8665 32.8005 70.4798C34.0805 71.0398 35.8405 71.8665 36.6138 73.0398C36.6938 73.1465 36.8538 73.0398 36.7738 72.9332C35.9738 71.7065 34.3472 70.9599 33.0672 70.3732C31.5472 69.6799 30.0272 69.4932 28.3738 69.5465C28.2672 69.5732 28.2672 69.7599 28.4005 69.7599Z" fill="#080E29"/>
<path d="M36.2399 74.5866C35.3866 74.4 34.1333 74.1333 32.6399 73.9466C27.4933 73.2266 20.4799 73.2 20.1866 74.56C20.0266 75.3866 22.3999 76.4266 25.6533 77.9999C29.6799 79.9199 35.3333 82.7999 42.1066 86.7999C43.0932 84.1333 44.1066 81.4933 45.0933 78.8266C44.9333 78.2133 44.3732 76.48 42.6666 75.2533C39.8666 73.2 36.5066 74.48 36.2399 74.5866Z" fill="#080E29"/>
<path d="M21.2536 75.04C25.3069 74.9334 29.0936 76.5867 32.6402 78.4C35.9469 80.1067 39.0669 82.16 41.7336 84.7467C41.8136 84.8267 41.9736 84.6934 41.8669 84.6134C39.0936 81.8934 35.8136 79.76 32.3469 78.0267C28.8802 76.2934 25.2002 74.7467 21.2536 74.8534C21.1202 74.8534 21.1202 75.04 21.2536 75.04Z" fill="#EEEEF0"/>
<path d="M31.3594 73.8933C32.026 74.32 32.506 74.96 32.746 75.7333C32.7727 75.8666 32.986 75.8133 32.9327 75.68C32.6927 74.8533 32.186 74.1866 31.466 73.7066C31.3594 73.6533 31.2527 73.84 31.3594 73.8933Z" fill="#EEEEF0"/>
<path d="M32.8276 74.1067C33.5209 74.48 34.0009 75.12 34.1609 75.8933C34.1876 76.0267 34.3743 75.9733 34.3476 75.84C34.1876 75.0133 33.6543 74.32 32.9076 73.9467C32.8009 73.8666 32.6943 74.0533 32.8276 74.1067Z" fill="#EEEEF0"/>
<path d="M34.4008 74.4533C34.8808 74.8266 35.1474 75.36 35.2541 75.9466C35.2807 76.08 35.4674 76.0266 35.4407 75.8933C35.3607 75.2533 35.0408 74.6933 34.5341 74.2933C34.4541 74.2133 34.2941 74.3733 34.4008 74.4533Z" fill="#EEEEF0"/>
<path d="M68.7465 40.6133C68.0531 40.7466 67.0398 40.9866 65.8932 41.5466C64.5598 42.2133 63.6798 42.9866 63.2798 43.3333C57.6265 48.5333 53.8132 53.3333 53.8132 53.3333C48.1065 60.5599 47.8131 59.7599 38.4798 71.3333C37.4131 72.6399 36.5598 73.7333 35.9731 74.4533C36.7731 74.4799 37.9465 74.5599 39.2798 74.9333C40.1598 75.1733 41.2798 75.4933 42.5331 76.2933C43.1998 76.7199 44.2398 77.5199 45.1731 78.8799C50.6931 74.0799 56.3998 69.2799 62.2932 64.4266C67.1465 60.4266 71.9731 56.5599 76.7465 52.8266C77.6265 51.1999 77.7065 49.8666 77.6532 49.0666C77.4398 45.3599 73.8932 41.9199 68.7465 40.6133Z" fill="white"/>
<path d="M67.7605 40.7467C64.6138 41.6 62.3738 43.9467 60.2138 46.2667C57.3605 49.3067 54.5605 52.3734 51.7871 55.4934C46.3205 61.6534 41.0138 67.9734 35.8938 74.4267C35.8138 74.5334 35.9471 74.6667 36.0271 74.5601C40.9338 68.3734 46.0005 62.2934 51.2271 56.3734C53.8138 53.44 56.4271 50.5601 59.0938 47.68C61.5738 45.0134 64.1071 41.92 67.7605 40.9067C67.9471 40.88 67.8938 40.6934 67.7605 40.7467Z" fill="#080E29"/>
<path d="M76.0796 53.3068C65.653 61.4401 55.4396 69.8134 45.413 78.4534C45.3063 78.5334 45.4663 78.6668 45.5463 78.5868C55.573 69.9468 65.7863 61.5734 76.213 53.4401C76.3196 53.3601 76.1596 53.2268 76.0796 53.3068Z" fill="#080E29"/>
<path d="M36.2936 74.88C37.8403 74.3467 39.9736 75.12 41.3869 75.8133C42.8536 76.5067 44.1069 77.52 45.0403 78.88C45.1203 78.9867 45.2803 78.88 45.2003 78.7733C44.1869 77.28 42.7736 76.1867 41.1203 75.4667C39.7069 74.8533 37.7603 74.1867 36.2403 74.6933C36.1336 74.72 36.1869 74.9333 36.2936 74.88Z" fill="#080E29"/>
<path d="M108.693 56.5066C108.48 56.24 108.213 55.8666 107.973 55.4133C107.84 55.1466 107.547 54.5866 107.307 53.7333C107.147 53.2 107.173 53.04 106.933 51.4666C106.933 51.4666 106.8 50.4266 106.507 49.04C106.293 47.92 106.16 47.4666 105.787 47.3066C105.52 47.2 105.2 47.2533 104.96 47.3866C104.693 47.5466 104.533 47.8666 104.453 48.48C104.373 49.0133 104.293 49.84 104.453 50.9066C104.08 50.88 103.573 50.8266 102.987 50.8266C100.96 50.7733 99.5468 50.7466 99.1201 51.4666C99.0134 51.6533 98.8268 52.1333 99.3068 53.12C99.2534 53.2 98.9068 53.6533 99.0134 54.2666C99.0668 54.6666 99.2801 54.9333 99.3868 55.04C99.3334 55.2266 99.2001 55.6533 99.3334 56.1866C99.4668 56.8 99.8401 57.1466 100 57.28C100.187 57.6 100.507 58.0266 101.04 58.32C101.493 58.56 101.733 58.5333 102.827 58.6933C103.813 58.8533 104.427 58.9333 105.093 59.2C105.76 59.4666 106.24 59.84 106.533 60.08C106.693 59.5466 106.96 58.8 107.44 58C107.893 57.3333 108.32 56.8533 108.693 56.5066Z" fill="white"/>
<path d="M112.907 34.5866C113.52 33.9999 114.4 33.2532 115.52 32.4266C116.4 31.7866 117.52 30.9866 119.12 30.2132C121.973 28.8266 123.92 28.7466 124.4 28.7199C125.52 28.6932 126.213 28.8532 126.8 29.1999C127.467 29.5732 127.867 30.1066 128.16 30.5066C128.827 31.3866 129.093 32.1866 129.2 32.5066C129.893 34.5599 129.387 32.4532 131.173 37.3866C131.92 39.4399 132.4 40.7999 133.013 42.7999C133.573 44.5866 134.133 46.5599 134.667 48.7466C135.12 50.6132 135.627 52.8532 136.107 55.4399C136.213 56.0532 136.533 57.8932 136.853 60.2932C137.333 63.8132 137.04 62.9332 137.413 65.5199C137.573 66.6666 137.733 67.4932 137.547 68.6666C137.52 68.9066 137.333 69.8932 136.72 71.0666C136.4 71.6799 135.147 73.9732 132.507 75.0666C131.04 75.6532 129.653 75.6799 128.987 75.6799C128.693 75.6799 128.213 75.6799 127.547 75.5999C124.933 75.2799 122.613 74.2666 121.947 73.9466C120.933 73.4932 118.907 72.4799 116.32 70.5599C113.707 68.6132 113.227 67.7599 109.333 64.4266C108.053 63.3599 107.013 62.5066 106.32 61.9732C106.347 61.3332 106.453 60.3999 106.88 59.3599C107.413 57.9999 108.187 57.0932 108.693 56.5866C110.587 57.4132 112.56 58.2399 114.64 59.0399C118.133 60.3999 121.493 61.5466 124.693 62.5332C124.4 61.5466 123.973 60.1599 123.413 58.4799C121.253 51.9732 119.013 47.1466 117.387 43.6532C116.293 41.1999 114.8 38.1066 112.907 34.5866Z" fill="#3754ED"/>
<path d="M115.2 32.8266C116.88 31.4399 118.8 30.3199 120.88 29.6266C123.226 28.8266 126.16 28.1066 127.92 30.3466C129.226 31.9999 129.866 34.2666 130.613 36.1866C131.386 38.1866 132.106 40.2132 132.746 42.2399C135.333 50.3999 136.906 58.8532 137.466 67.3866C137.466 67.5199 137.68 67.5199 137.68 67.3866C137.04 57.6799 135.093 48.0799 131.84 38.9066C131.066 36.7199 130.24 34.5599 129.306 32.4532C128.613 30.8532 127.733 29.1732 125.893 28.7199C124 28.2666 121.733 29.0399 120 29.7332C118.213 30.4532 116.56 31.4666 115.066 32.6932C114.96 32.7466 115.093 32.9066 115.2 32.8266Z" fill="#080E29"/>
<path d="M117.227 43.4398C120.08 49.1998 122.453 55.1731 124.347 61.3065C124.373 61.4398 124.587 61.3865 124.533 61.2531C122.64 55.0931 120.24 49.1198 117.387 43.3331C117.36 43.2265 117.173 43.3331 117.227 43.4398Z" fill="#080E29"/>
<path d="M108.801 56.6132C113.761 58.7199 118.801 60.6132 123.921 62.2666C124.054 62.3199 124.107 62.1066 123.974 62.0799C118.881 60.4266 113.841 58.5332 108.907 56.4532C108.774 56.3999 108.667 56.5599 108.801 56.6132Z" fill="#080E29"/>
<path d="M108.586 56.5599C107.12 57.8133 106.32 59.6266 106.426 61.5466C106.426 61.6799 106.64 61.6799 106.64 61.5466C106.56 59.6533 107.306 57.9199 108.746 56.6933C108.826 56.6133 108.693 56.4799 108.586 56.5599Z" fill="#080E29"/>
<path d="M106.826 62.0533C111.573 66.8 116.586 71.8933 122.933 74.4266C125.84 75.5733 129.226 76.2666 132.266 75.1999C135.36 74.1333 136.8 71.6266 137.653 68.6399C137.68 68.5066 137.493 68.4533 137.466 68.5866C136.453 72.16 134.426 74.8266 130.56 75.4133C127.28 75.9199 123.893 74.7999 121.013 73.3333C115.626 70.5866 111.226 66.1333 106.986 61.92C106.88 61.8133 106.72 61.9466 106.826 62.0533Z" fill="#080E29"/>
<path d="M104.587 51.1998C104.56 50.0798 104.133 47.8931 105.333 47.3065C105.44 47.2531 105.36 47.0665 105.227 47.1465C103.867 47.8398 104.373 49.9998 104.373 51.2265C104.373 51.3331 104.587 51.3331 104.587 51.1998Z" fill="#080E29"/>
<path d="M105.813 47.6532C107.333 50.3198 106.347 53.8132 108.453 56.2132C108.533 56.3198 108.667 56.1598 108.587 56.0798C106.507 53.7065 107.467 50.2132 105.973 47.5465C105.92 47.4398 105.76 47.5465 105.813 47.6532Z" fill="#080E29"/>
<path d="M99.4132 51.4133C100.133 51.04 101.12 51.04 101.92 50.96C102.613 50.9066 103.307 50.9066 104 50.96C104.133 50.96 104.133 50.7733 104 50.7466C103.067 50.6666 102.16 50.72 101.253 50.8266C100.613 50.9066 99.9199 50.9333 99.3332 51.2266C99.1999 51.28 99.3065 51.4666 99.4132 51.4133Z" fill="#080E29"/>
<path d="M99.2534 53.2C99.7334 53.7867 100.347 54.2133 101.04 54.4533C101.173 54.5067 101.227 54.2933 101.093 54.2667C100.4 54.0267 99.8401 53.6267 99.3868 53.0667C99.3068 52.96 99.1734 53.0933 99.2534 53.2Z" fill="#080E29"/>
<path d="M99.0927 54.6133C99.3327 55.5199 100.533 56.1066 101.333 56.4266C101.439 56.4799 101.493 56.2932 101.386 56.2399C100.666 55.9466 99.5194 55.3866 99.306 54.5866C99.2527 54.4266 99.0394 54.4799 99.0927 54.6133Z" fill="#080E29"/>
<path d="M99.4133 56.6399C99.8667 57.1999 100.293 58.0266 100.96 58.3733C101.627 58.6933 102.507 58.7466 103.227 58.8266C103.36 58.8266 103.36 58.6399 103.227 58.6133C102.507 58.5333 101.28 58.4799 100.72 57.9466C100.267 57.5466 99.9467 56.9599 99.5733 56.5066C99.4667 56.3999 99.3333 56.5599 99.4133 56.6399Z" fill="#080E29"/>
<path d="M104.16 58.9865C105.013 59.1732 105.813 59.5732 106.48 60.1332C106.586 60.2132 106.72 60.0798 106.613 59.9998C105.92 59.4132 105.093 59.0132 104.213 58.7998C104.08 58.7732 104.026 58.9598 104.16 58.9865Z" fill="#080E29"/>
</svg>
